# xmcd
#
# Track frame offsets:
#	150
#	30260
#	47410
#	70998
#	89116
#	112238
#	142942
#	161761
#	184177
#	222069
#	237217
#
# Disc length: 4059 seconds
#
# Revision: 1
# Processed by: cddbd v1.5.2PL0 Copyright (c) Steve Scherf et al.
# Submitted via: audiograbber 1.83.01
#
DISCID=970fd90b
DTITLE=Grateful Dead - 72-09-28 Stanley Theatre, Jersey City NJ
DYEAR=1900
DGENRE=
TTITLE0=Loser
TTITLE1=BIODTL
TTITLE2=Brown Eyed Women
TTITLE3=Mexicali Blues
TTITLE4=Mississippi Half-Step
TTITLE5=Black Throated Wind
TTITLE6=Don't Ease Me In
TTITLE7=Big River
TTITLE8=Tennessee Jed
TTITLE9=Promised Land
TTITLE10=China Cat Sunflower > I Know Your Rider
EXTD=
EXTT0=
EXTT1=
EXTT2=
EXTT3=
EXTT4=
EXTT5=
EXTT6=
EXTT7=
EXTT8=
EXTT9=
EXTT10=
PLAYORDER=
